<svg height='64px' width='64px'  fill="#000000" xmlns="http://www.w3.org/2000/svg" xmlns:xlink="http://www.w3.org/1999/xlink" version="1.1" x="0px" y="0px" viewBox="0 0 48 48" enable-background="new 0 0 48 48" xml:space="preserve"><g><path d="M26.448,48c-0.151,0-0.302-0.034-0.44-0.102L3.899,37.066c-0.358-0.176-0.578-0.548-0.559-0.946s0.273-0.748,0.647-0.888   l16.174-6.085c0.246-0.093,0.517-0.086,0.756,0.021l23.148,10.239c0.37,0.163,0.604,0.533,0.596,0.938   c-0.01,0.404-0.262,0.763-0.639,0.909L26.81,47.933C26.693,47.978,26.57,48,26.448,48z M6.858,36.289l19.637,9.62l14.558-5.647   l-20.57-9.099L6.858,36.289z"></path><path d="M17.1,36.426c-0.552,0-1-0.447-1-1V1c0-0.552,0.448-1,1-1s1,0.448,1,1v34.426C18.1,35.979,17.652,36.426,17.1,36.426z"></path><path d="M32.043,19.212c-5.67,0-9.946-2.19-9.946-5.095c0-2.905,4.276-5.095,9.946-5.095s9.945,2.19,9.945,5.095   C41.988,17.021,37.713,19.212,32.043,19.212z M32.043,11.022c-4.923,0-7.946,1.803-7.946,3.095s3.023,3.095,7.946,3.095   s7.945-1.802,7.945-3.095S36.966,11.022,32.043,11.022z"></path><path d="M24.936,12.63c-0.115,0-0.231-0.02-0.346-0.063L14.522,8.855c-0.518-0.191-0.783-0.766-0.592-1.284   c0.191-0.518,0.768-0.784,1.284-0.592l10.067,3.713c0.519,0.191,0.783,0.766,0.593,1.284C25.725,12.38,25.343,12.63,24.936,12.63z"></path></g></svg>
